<?xml version="1.0" standalone="no"?>
<!DOCTYPE svg PUBLIC "-//W3C//DTD SVG 20010904//EN"
 "http://www.w3.org/TR/2001/REC-SVG-20010904/DTD/svg10.dtd">
<svg version="1.0" xmlns="http://www.w3.org/2000/svg"
 width="700.000000pt" height="700.000000pt" viewBox="0 0 700.000000 700.000000"
 preserveAspectRatio="xMidYMid meet">
<metadata>
Created by potrace 1.11, written by Peter Selinger 2001-2013
</metadata>
<g transform="translate(0.000000,700.000000) scale(0.100000,-0.100000)"
fill="#000000" stroke="none">
<path d="M3460 6989 c-31 -13 -36 -18 -169 -189 -62 -80 -127 -162 -144 -184
-18 -21 -119 -149 -225 -285 -106 -135 -203 -259 -216 -276 -29 -36 -185 -235
-224 -285 -15 -19 -45 -57 -67 -85 -22 -27 -63 -79 -90 -115 -27 -36 -52 -67
-55 -70 -13 -11 -138 -176 -149 -197 -26 -51 0 -137 51 -164 17 -9 116 -13
386 -13 250 0 362 -3 363 -10 3 -36 4 -1113 1 -1124 -3 -7 -31 11 -71 46 -188
165 -328 261 -516 355 -97 48 -247 103 -310 113 -22 3 -42 7 -45 9 -3 2 -26 6
-50 10 -25 4 -47 9 -50 12 -3 2 -5 165 -5 361 0 391 -2 401 -58 440 -35 23
-71 28 -109 13 -13 -5 -105 -72 -204 -150 -98 -78 -204 -160 -234 -184 -30
-24 -98 -77 -150 -118 -52 -42 -243 -192 -425 -334 -181 -142 -370 -291 -420
-330 -50 -39 -126 -99 -170 -134 -86 -68 -104 -91 -105 -134 0 -66 19 -85 326
-327 164 -129 305 -239 312 -245 7 -5 18 -15 25 -20 7 -6 95 -76 197 -155 102
-80 192 -150 200 -157 8 -7 94 -74 190 -149 96 -75 227 -178 290 -229 128
-102 143 -112 189 -120 43 -7 106 28 122 68 9 21 13 129 15 381 1 193 2 352 3
353 0 1 34 -7 73 -18 439 -122 838 -651 954 -1264 4 -22 10 -485 14 -1030 3
-545 7 -990 8 -991 1 -1 10 -10 20 -21 9 -11 26 -25 37 -30 13 -7 190 -11 517
-11 531 1 535 1 568 51 13 19 15 150 16 947 1 509 4 959 8 1000 20 209 114
498 222 682 19 33 34 61 34 64 0 2 21 34 47 72 187 268 394 443 613 516 41 13
86 26 100 28 l25 3 0 -360 c1 -396 1 -399 64 -424 71 -30 100 -22 197 55 33
27 74 59 90 71 48 37 86 67 118 94 17 14 177 140 356 279 179 140 348 273 375
295 28 22 66 52 85 67 19 15 127 100 240 188 113 88 221 173 240 188 83 65
102 87 107 127 3 31 -1 48 -19 75 -18 27 -565 465 -1050 842 -54 41 -433 339
-448 351 -174 142 -225 166 -288 133 -67 -35 -67 -30 -67 -435 l0 -365 -77
-13 c-290 -49 -628 -233 -917 -500 -33 -30 -47 -38 -51 -28 -4 11 -5 1091 -1
1116 1 3 162 5 358 5 307 -1 362 1 393 15 62 28 88 94 62 159 -6 14 -48 72
-94 130 -46 58 -107 134 -134 170 -71 91 -405 516 -542 690 -63 80 -125 159
-138 175 -265 340 -400 508 -417 517 -30 15 -78 19 -107 7z m119 -411 c45 -57
135 -173 202 -258 66 -85 131 -168 144 -185 13 -16 61 -78 107 -136 45 -59
108 -139 138 -179 30 -39 60 -77 65 -83 6 -7 75 -94 153 -194 l142 -183 -295
0 c-228 0 -303 -3 -328 -14 -66 -27 -63 10 -63 -887 l1 -811 28 -23 c32 -28
90 -42 123 -29 13 5 79 63 146 129 153 148 185 176 323 279 169 127 303 201
454 251 88 30 223 55 293 55 28 0 65 7 83 16 59 28 62 44 63 357 1 338 0 325
10 311 4 -5 106 -87 227 -181 284 -221 554 -432 835 -652 123 -97 231 -181
238 -187 17 -12 -5 -32 -254 -224 -82 -63 -158 -122 -169 -132 -11 -9 -78 -62
-150 -117 -226 -176 -326 -254 -424 -331 -229 -180 -311 -240 -312 -228 0 7
-1 141 -1 298 0 308 -3 321 -54 355 -24 15 -42 17 -123 12 -427 -27 -841 -354
-1116 -882 -71 -136 -164 -394 -181 -505 -3 -19 -8 -38 -9 -41 -2 -3 -7 -28
-10 -55 -3 -27 -9 -60 -12 -74 -4 -14 -7 -423 -8 -911 -1 -487 -4 -889 -7
-895 -4 -5 -142 -9 -350 -9 l-343 0 -1 870 c0 479 -4 899 -8 935 -6 55 -21
130 -52 268 -11 54 -68 213 -107 302 -35 81 -63 135 -131 255 -56 100 -192
272 -291 369 -145 143 -280 235 -439 301 -119 49 -211 69 -328 69 -94 1 -99 0
-125 -27 l-28 -27 -3 -311 -3 -311 -37 28 c-20 16 -42 33 -49 39 -6 5 -24 20
-40 31 -15 12 -206 160 -423 330 -217 169 -476 370 -575 447 -99 77 -184 144
-190 149 -10 9 9 28 75 78 19 14 45 34 59 46 14 11 132 103 261 204 129 100
251 195 270 210 19 16 94 74 165 129 72 56 137 107 145 114 98 78 330 257 335
257 3 0 5 -133 5 -295 0 -325 2 -340 60 -370 16 -8 53 -15 82 -15 119 0 285
-42 428 -107 86 -40 256 -138 280 -163 3 -3 23 -18 45 -35 80 -58 222 -182
330 -288 60 -60 118 -113 127 -118 22 -12 58 -11 98 2 67 24 65 -6 65 875 0
613 -3 796 -13 819 -24 59 -29 60 -363 65 l-307 5 125 160 c170 217 319 409
573 735 118 151 219 280 225 286 5 6 30 39 55 72 25 34 48 61 52 62 3 0 43
-46 87 -102z"/>
</g>
</svg>
